<svg width="102" height="24" viewBox="0 0 102 24" fill="none" xmlns="http://www.w3.org/2000/svg">
<g id="Group">
<path id="Vector" fill-rule="evenodd" clip-rule="evenodd" d="M6.86484 9.67811C11.4138 8.09763 12.1881 3.98055 11.6074 0.195187C11.6074 0.0586017 11.7236 -0.0389593 11.8397 6.51414e-05C16.1951 2.14641 21.0926 6.82933 21.0926 13.8537C21.0926 19.2391 16.9501 24.0001 10.9299 24.0001C8.78173 24.0985 6.66221 23.4731 4.90585 22.2224C3.1495 20.9718 1.85635 19.1672 1.2305 17.0934C0.604657 15.0197 0.68176 12.7949 1.44964 10.7702C2.21752 8.74556 3.63245 7.03631 5.4711 5.91226C5.58725 5.83421 5.74211 5.91226 5.74211 6.04885C5.80018 6.7708 5.99375 8.58543 6.78741 9.67811H6.86484Z" fill="url(#paint0_linear_2012_948)"/>
<path id="Vector_2" fill-rule="evenodd" clip-rule="evenodd" d="M33.907 19.7268L34.2361 19.3366L35.2621 22.6146L35.1266 22.7512C34.3523 23.4732 33.1908 23.8439 31.7003 23.8439H31.6422C30.2872 23.8439 29.2225 23.4537 28.487 22.7317C27.7514 21.9903 27.3642 20.8781 27.3642 19.4732V10.5366H24.751V6.92684H27.3642V2.57562H31.3906V6.92684H34.5846V10.5366H31.3712V18.5951C31.3712 18.9659 31.468 20.1561 32.5907 20.1561C33.1715 20.1561 33.7135 19.9415 33.907 19.7073V19.7268ZM36.0364 23.4732V6.94635H40.0627V23.4732H36.0364ZM38.0302 0.195129C38.5079 0.195145 38.975 0.337712 39.3725 0.604863C39.7699 0.872014 40.0801 1.25179 40.2638 1.69633C40.4475 2.14087 40.4965 2.63027 40.4047 3.10285C40.3129 3.57544 40.0843 4.01005 39.7479 4.35192C39.4114 4.69379 38.9821 4.92761 38.514 5.02391C38.0459 5.12021 37.56 5.07469 37.1175 4.89307C36.6751 4.71146 36.2959 4.40188 36.0277 4.00336C35.7595 3.60484 35.6143 3.13521 35.6105 2.65367C35.6105 1.32684 36.7139 0.195129 38.0302 0.195129ZM50.8835 6.53659C54.3679 6.53659 56.2842 8.44879 56.2842 11.9415V23.4537H52.2579V12.9171C52.1805 11.0439 51.29 10.1854 49.393 10.1854C47.6895 10.1854 46.3152 11.239 45.6183 12.1366V23.4537H41.5919V6.96586H45.6183V8.72196C46.7797 7.59025 48.6381 6.57562 50.8835 6.57562V6.53659ZM69.6796 8.66342V0.897568H73.7059V23.4927H69.6796V21.7756C69.0635 22.4306 68.3223 22.9533 67.5006 23.3121C66.679 23.6708 65.7938 23.8584 64.8983 23.8634C60.5042 23.8634 57.5618 20.3903 57.5618 15.2195C57.5618 10.0293 60.5042 6.55611 64.8983 6.55611C65.7957 6.56023 66.6828 6.7493 67.505 7.1117C68.3272 7.47409 69.0673 8.00215 69.6796 8.66342ZM69.6796 12.1561C69.2309 11.567 68.6575 11.0862 68.0012 10.7486C67.3448 10.4111 66.6221 10.2253 65.8855 10.2049C63.3884 10.2049 61.7237 12.2146 61.7237 15.2195C61.7237 18.2049 63.3884 20.2146 65.8855 20.2146C67.3373 20.2146 68.9247 19.4342 69.6796 18.3024V12.1561ZM83.1137 6.55611C87.8756 6.55611 91.1857 10.2634 91.1857 15.5317V16.6439H79.0099C79.4164 18.9659 81.236 20.4488 83.7137 20.4488C85.2817 20.4488 87.0045 19.7659 87.9917 18.7707L88.2627 18.5366L90.1791 21.3073L89.9856 21.4829C88.1717 23.104 85.807 23.9568 83.3847 23.8634C78.3517 23.8634 74.8093 20.2927 74.8093 15.2C74.7702 14.0756 74.9568 12.9549 75.3581 11.905C75.7593 10.8552 76.3669 9.89788 77.1443 9.09058C77.9217 8.28329 78.8529 7.64265 79.882 7.20712C80.9111 6.77159 82.0169 6.55016 83.133 6.55611H83.1137ZM78.9905 13.5805H87.2562C87.0239 11.1024 84.9913 9.97074 83.1137 9.97074C80.2875 9.97074 79.2228 12.1171 78.9905 13.6V13.5805ZM100.923 6.55611H101.213V10.6537L100.864 10.5951C100.574 10.5366 100.206 10.4976 99.8385 10.4976C98.5415 10.4976 96.7413 11.4146 96.0638 12.3903V23.4537H92.0374V6.94635H96.0831V8.7805C97.4188 7.37562 99.1803 6.55611 100.923 6.55611Z" fill="#424242"/>
</g>
<defs>
<linearGradient id="paint0_linear_2012_948" x1="2028.91" y1="-0.00860596" x2="-339.005" y2="1999.42" gradientUnits="userSpaceOnUse">
<stop stop-color="#FF7854"/>
<stop offset="1" stop-color="#FD267D"/>
</linearGradient>
</defs>
</svg>
