<svg width="124" height="132" viewBox="0 0 124 132" fill="none" xmlns="http://www.w3.org/2000/svg">
<path fill-rule="evenodd" clip-rule="evenodd" d="M48.5378 21.5859C46.9904 21.5859 45.7361 22.8403 45.7361 24.3876V42.3183C45.7361 43.6737 46.6986 44.8043 47.9773 45.0639V29.9906C47.9773 28.4433 49.2317 27.1889 50.779 27.1889H60.3047C61.852 27.1889 63.1064 28.4433 63.1064 29.9906V45.064C64.3852 44.8044 65.3478 43.6738 65.3478 42.3183V24.3876C65.3478 22.8403 64.0934 21.5859 62.5461 21.5859H48.5378Z" fill="#061856"/>
<path d="M19.9609 44.5589C19.9609 42.0831 21.9679 40.0762 24.4436 40.0762H83.2787C85.7545 40.0762 87.7614 42.0831 87.7614 44.5588V123.006H19.9609V44.5589Z" fill="#061856"/>
<path d="M19.9609 44.5589C19.9609 42.0831 21.9679 40.0762 24.4436 40.0762H67.029V123.006H19.9609V44.5589Z" fill="#F8D747"/>
<path d="M30.0469 45.3994H33.9688C35.3613 45.3994 36.4902 46.5283 36.4902 47.9209V108.437C36.4902 109.829 35.3613 110.958 33.9688 110.958H30.0469C28.6543 110.958 27.5254 109.829 27.5254 108.437V47.9209C27.5254 46.5283 28.6543 45.3994 30.0469 45.3994Z" fill="white" stroke="white" stroke-width="0.560335"/>
<path d="M48.5381 45.3994H52.46C53.8525 45.3994 54.9814 46.5283 54.9814 47.9209V108.437C54.9814 109.829 53.8525 110.958 52.46 110.958H48.5381C47.1455 110.958 46.0166 109.829 46.0166 108.437V47.9209C46.0166 46.5283 47.1455 45.3994 48.5381 45.3994Z" fill="white" stroke="white" stroke-width="0.560335"/>
<path d="M19.9609 117.402H67.029V123.006H19.9609V117.402Z" fill="#061856"/>
<path d="M19.9609 71.4551H87.7614V80.4204H19.9609V71.4551Z" fill="white"/>
<path d="M67.0291 71.4551H87.7614V80.4204H67.0291V71.4551Z" fill="#4F87EF"/>
<path fill-rule="evenodd" clip-rule="evenodd" d="M37.8916 71.4551H39.5726V73.1361H45.1759V71.4551H46.857V80.4204H37.8916V71.4551ZM45.1759 78.7391H39.5726V80.4201H45.1759V78.7391Z" fill="#061856"/>
<path d="M19.9609 123.006H24.4436C26.9193 123.006 28.9263 125.013 28.9263 127.489V127.489C28.9263 129.964 26.9193 131.971 24.4436 131.971V131.971C21.9679 131.971 19.9609 129.964 19.9609 127.489V123.006Z" fill="#061856"/>
<path d="M40.6934 114.601C40.6934 105.007 48.4703 97.2305 58.0637 97.2305H94.4855C104.079 97.2305 111.856 105.007 111.856 114.601V123.566C111.856 128.208 108.093 131.971 103.451 131.971H49.0984C44.4564 131.971 40.6934 128.208 40.6934 123.566V114.601Z" fill="#4F87EF"/>
<rect x="73.7529" y="111.238" width="3.96163" height="3.96163" transform="rotate(-45 73.7529 111.238)" fill="#061856"/>
<path d="M49.0984 131.971H103.451C108.093 131.971 111.856 128.208 111.856 123.566H40.6934C40.6934 128.208 44.4564 131.971 49.0984 131.971Z" fill="#061856"/>
<path d="M86.0804 99.4718V93.8685C86.0804 88.6076 81.8156 84.3428 76.5547 84.3428V84.3428C71.2938 84.3428 67.0291 88.6076 67.0291 93.8685V99.4718" stroke="#4F87EF" stroke-width="2.24134"/>
<rect x="18.8401" y="33.5557" width="5.04301" height="5.04301" transform="rotate(-45 18.8401 33.5557)" fill="#4F87EF"/>
<rect x="7.63354" y="3.29785" width="3.92234" height="3.92234" transform="rotate(-45 7.63354 3.29785)" fill="#F8D747"/>
<rect x="65.9082" y="15.9531" width="3.92234" height="3.92234" transform="rotate(-45 65.9082 15.9531)" fill="#4F87EF"/>
<rect x="118.019" y="15.9531" width="3.92234" height="3.92234" transform="rotate(-45 118.019 15.9531)" fill="#F8D747"/>
<rect x="95.0457" y="80.3916" width="3.92234" height="3.92234" transform="rotate(-45 95.0457 80.3916)" fill="#F8D747"/>
<rect x="3.91504" y="87.9082" width="3.96163" height="3.96163" transform="rotate(-45 3.91504 87.9082)" fill="#4F87EF"/>
<path d="M0.349121 54.0842C0.349121 55.0407 0.537536 55.988 0.903609 56.8718C1.26968 57.7555 1.80624 58.5586 2.48266 59.235C3.15907 59.9114 3.96209 60.4479 4.84587 60.814C5.72965 61.1801 6.67688 61.3685 7.63347 61.3685L7.63347 57.8333C7.14112 57.8333 6.6536 57.7364 6.19873 57.5479C5.74385 57.3595 5.33055 57.0834 4.98241 56.7352C4.63426 56.3871 4.3581 55.9738 4.16969 55.5189C3.98127 55.064 3.8843 54.5765 3.8843 54.0842L0.349121 54.0842Z" fill="#F8D747"/>
<path d="M86.0802 26.0674C85.1236 26.0674 84.1763 26.2558 83.2926 26.6219C82.4088 26.9879 81.6058 27.5245 80.9293 28.2009C80.2529 28.8773 79.7164 29.6804 79.3503 30.5641C78.9842 31.4479 78.7958 32.3951 78.7958 33.3517L82.331 33.3517C82.331 32.8594 82.428 32.3719 82.6164 31.917C82.8048 31.4621 83.0809 31.0488 83.4291 30.7007C83.7772 30.3525 84.1905 30.0764 84.6454 29.8879C85.1003 29.6995 85.5878 29.6026 86.0802 29.6026L86.0802 26.0674Z" fill="white"/>
<rect x="108.494" y="67.0078" width="4.80621" height="10.9466" transform="rotate(-45 108.494 67.0078)" fill="#4F87EF"/>
<path fill-rule="evenodd" clip-rule="evenodd" d="M106.252 40.638C106.252 43.4145 104.008 45.6669 101.235 45.6809C104.008 45.695 106.251 47.9468 106.252 50.7227C106.252 50.7227 106.252 50.7227 106.252 50.7227C106.252 47.9468 108.496 45.695 111.269 45.6809C108.496 45.6669 106.252 43.4145 106.252 40.638C106.252 40.6376 106.252 40.6371 106.252 40.6367C106.252 40.6367 106.252 40.6367 106.252 40.6367C106.252 40.6371 106.252 40.6376 106.252 40.638Z" fill="#F8D747"/>
<rect x="62.5461" y="97.2305" width="3.92234" height="30.8184" fill="#061856"/>
<rect x="87.2009" y="97.2305" width="3.92234" height="30.8184" fill="#061856"/>
</svg>
