<svg width="440" height="128" viewBox="0 0 440 128" fill="none" xmlns="http://www.w3.org/2000/svg">
<path d="M416.097 98.9444L403.922 104.786V101.222L412.006 97.459L403.922 93.6644V90.1004L416.097 95.9417V98.9444ZM385.493 110.438L396.614 80.8057H399.813L388.693 110.438H385.493ZM379.186 88.8577H382.817L374.567 109.184C374.127 110.284 373.55 111.11 372.837 111.659C372.121 112.208 371.091 112.484 369.75 112.484H366.878V109.547H370.905L372.455 105.654L365.591 88.8577H369.354L372.061 95.9844L374.173 101.826H374.37L376.482 95.9844L379.186 88.8577ZM343.619 105.884V88.8577H346.687V91.0684H346.853C347.117 90.3417 347.495 89.7257 347.991 89.2217C348.486 88.715 349.195 88.4617 350.121 88.4617C351.019 88.4617 351.719 88.7084 352.215 89.2044C352.71 89.699 353.022 90.3764 353.154 91.2337H353.287C353.595 90.463 354.023 89.8084 354.574 89.271C355.123 88.731 355.915 88.4617 356.95 88.4617C358.27 88.4617 359.187 88.923 359.705 89.8484C360.222 90.771 360.481 92.1244 360.481 93.9057V105.884H357.411V94.3684C357.411 93.1804 357.269 92.3617 356.983 91.9097C356.695 91.459 356.235 91.2337 355.598 91.2337C355.025 91.2337 354.546 91.4257 354.161 91.811C353.777 92.195 353.583 92.7737 353.583 93.543V105.884H350.514V94.3684C350.514 93.1804 350.378 92.3617 350.103 91.9097C349.827 91.459 349.371 91.2337 348.733 91.2337C348.139 91.2337 347.65 91.4257 347.265 91.811C346.879 92.195 346.687 92.7737 346.687 93.543V105.884H343.619ZM329.631 91.2004C328.993 91.2004 328.405 91.3097 327.866 91.531C327.327 91.751 326.865 92.0644 326.481 92.471C326.095 92.879 325.791 93.3577 325.571 93.9057C325.353 94.4564 325.242 95.0604 325.242 95.7204V95.9524H333.789V95.623C333.789 94.279 333.409 93.2084 332.65 92.4044C331.893 91.603 330.886 91.2004 329.631 91.2004ZM329.895 106.28C328.598 106.28 327.431 106.071 326.398 105.654C325.363 105.235 324.494 104.642 323.79 103.871C323.086 103.102 322.547 102.171 322.174 101.083C321.799 99.995 321.614 98.7684 321.614 97.403C321.614 96.0404 321.805 94.807 322.19 93.707C322.574 92.6097 323.115 91.667 323.806 90.887C324.501 90.1057 325.342 89.5057 326.333 89.087C327.322 88.671 328.422 88.4617 329.631 88.4617C330.819 88.4617 331.898 88.6657 332.865 89.0724C333.833 89.479 334.658 90.0564 335.341 90.8044C336.021 91.5537 336.545 92.443 336.907 93.4764C337.27 94.5124 337.453 95.655 337.453 96.9097V98.2617H325.242V98.819C325.242 100.152 325.661 101.24 326.497 102.082C327.333 102.923 328.487 103.343 329.961 103.343C331.062 103.343 332.002 103.11 332.782 102.639C333.563 102.168 334.197 101.54 334.679 100.754L336.923 102.739C336.351 103.732 335.477 104.571 334.301 105.255C333.125 105.938 331.654 106.28 329.895 106.28ZM307.37 103.343C307.898 103.343 308.394 103.278 308.855 103.146C309.318 103.014 309.725 102.816 310.075 102.551C310.429 102.288 310.709 101.963 310.918 101.579C311.126 101.194 311.231 100.736 311.231 100.208V94.5324C311.231 94.0044 311.126 93.5484 310.918 93.1644C310.709 92.779 310.429 92.4537 310.075 92.191C309.725 91.9257 309.318 91.7284 308.855 91.5964C308.394 91.4644 307.898 91.3977 307.37 91.3977C306.007 91.3977 304.957 91.8164 304.219 92.6524C303.482 93.4884 303.114 94.599 303.114 95.9844V98.7564C303.114 100.142 303.482 101.254 304.219 102.09C304.957 102.926 306.007 103.343 307.37 103.343ZM311.231 102.98H311.033C310.527 104.015 309.855 104.823 309.019 105.406C308.185 105.988 307.139 106.28 305.886 106.28C303.885 106.28 302.29 105.532 301.101 104.036C299.913 102.54 299.319 100.319 299.319 97.371C299.319 94.423 299.913 92.2017 301.101 90.7057C302.29 89.2097 303.885 88.4617 305.886 88.4617C307.139 88.4617 308.185 88.7524 309.019 89.335C309.855 89.919 310.527 90.727 311.033 91.7617H311.231V81.4657H314.829V105.884H311.231V102.98ZM284.379 103.64C285.545 103.64 286.502 103.379 287.249 102.854C287.998 102.328 288.371 101.651 288.371 100.82V98.3617H285.17C282.574 98.3617 281.277 99.1377 281.277 100.69V101.346C281.277 102.111 281.551 102.684 282.102 103.066C282.651 103.45 283.41 103.64 284.379 103.64ZM291.902 105.884C290.867 105.884 290.093 105.619 289.575 105.092C289.059 104.564 288.745 103.871 288.635 103.014H288.47C288.139 104.048 287.541 104.851 286.673 105.423C285.802 105.994 284.697 106.28 283.355 106.28C281.618 106.28 280.233 105.824 279.198 104.911C278.163 103.999 277.647 102.739 277.647 101.134C277.647 99.483 278.257 98.223 279.478 97.3537C280.699 96.4857 282.574 96.0524 285.105 96.0524H288.371V94.731C288.371 92.4204 287.15 91.2657 284.709 91.2657C283.609 91.2657 282.717 91.4817 282.035 91.9097C281.353 92.339 280.783 92.9057 280.319 93.6084L278.175 91.8604C278.659 90.9364 279.471 90.139 280.617 89.4684C281.759 88.7977 283.235 88.4617 285.038 88.4617C287.194 88.4617 288.889 88.9777 290.121 90.0124C291.351 91.047 291.967 92.5417 291.967 94.5004V103.047H294.113V105.884H291.902ZM264.458 106.28C263.181 106.28 262.043 106.071 261.042 105.654C260.041 105.235 259.194 104.642 258.502 103.871C257.807 103.102 257.281 102.167 256.918 101.066C256.554 99.967 256.373 98.735 256.373 97.371C256.373 96.007 256.554 94.775 256.918 93.675C257.281 92.575 257.807 91.6404 258.502 90.8697C259.194 90.1004 260.041 89.5057 261.042 89.087C262.043 88.671 263.171 88.4617 264.425 88.4617C266.185 88.4617 267.598 88.831 268.665 89.571C269.733 90.3097 270.53 91.2724 271.058 92.4537L268.253 93.9724C267.945 93.1804 267.477 92.5524 266.849 92.091C266.223 91.6297 265.414 91.3977 264.425 91.3977C263.061 91.3977 262.005 91.8137 261.257 92.643C260.51 93.4724 260.134 94.5737 260.134 95.9444V98.7977C260.134 100.147 260.51 101.243 261.257 102.083C262.005 102.924 263.082 103.343 264.49 103.343C265.546 103.343 266.409 103.102 267.081 102.618C267.751 102.134 268.286 101.474 268.681 100.638L271.321 102.255C270.771 103.438 269.935 104.403 268.813 105.155C267.691 105.906 266.239 106.28 264.458 106.28ZM214.885 95.9417L227.059 90.1004V93.6644L218.975 97.427L227.059 101.222V104.786L214.885 98.9444V95.9417ZM241.215 103.64C242.381 103.64 243.338 103.379 244.085 102.854C244.834 102.328 245.207 101.651 245.207 100.82V98.3617H242.006C239.41 98.3617 238.113 99.1377 238.113 100.69V101.346C238.113 102.111 238.387 102.684 238.938 103.066C239.487 103.45 240.246 103.64 241.215 103.64ZM248.737 105.884C247.703 105.884 246.929 105.619 246.411 105.092C245.895 104.564 245.581 103.871 245.47 103.014H245.306C244.975 104.048 244.377 104.851 243.509 105.423C242.638 105.994 241.533 106.28 240.191 106.28C238.454 106.28 237.069 105.824 236.034 104.911C234.999 103.999 234.483 102.739 234.483 101.134C234.483 99.483 235.093 98.223 236.314 97.3537C237.534 96.4857 239.41 96.0524 241.941 96.0524H245.207V94.731C245.207 92.4204 243.986 91.2657 241.545 91.2657C240.445 91.2657 239.553 91.4817 238.871 91.9097C238.189 92.339 237.619 92.9057 237.155 93.6084L235.011 91.8604C235.495 90.9364 236.307 90.139 237.453 89.4684C238.595 88.7977 240.07 88.4617 241.874 88.4617C244.03 88.4617 245.725 88.9777 246.957 90.0124C248.187 91.047 248.803 92.5417 248.803 94.5004V103.047H250.949V105.884H248.737Z" fill="#00CC44"/>
<path d="M388.869 46.7332C389.426 41.6638 392.754 38.9705 397.952 38.8358C403.16 38.9705 406.336 41.4998 406.694 46.7332H388.869ZM416.368 50.4878C416.368 49.1865 416.281 47.9318 416.097 46.7332C414.692 36.9785 407.684 30.8585 397.754 30.8585C386.612 30.8585 379.15 38.5732 379.15 50.4878C379.15 62.4012 386.612 70.1172 397.754 70.1172C405.669 70.1172 412.144 66.4318 414.985 59.9158L406.549 56.8518C405.206 60.1705 402.348 61.7185 397.952 61.7185C392.604 61.5838 389.472 58.5878 388.952 53.3372H416.217C416.32 52.4172 416.368 51.4638 416.368 50.4878ZM373.401 46.3731V68.9718H363.821V40.4371H348.164V68.9678H338.582V31.9985H359.026C366.965 31.9985 373.401 38.4345 373.401 46.3731ZM313.217 60.9265C306.482 60.7732 303.328 57.3625 303.328 50.2972C303.328 43.2772 306.446 39.7851 313.217 39.6292C319.988 39.7851 323.106 43.2772 323.106 50.2972C323.106 57.3625 319.952 60.7732 313.217 60.9265ZM313.213 30.8585C301.457 30.8585 293.592 38.5732 293.592 50.4878C293.592 62.4012 301.457 70.1172 313.213 70.1172C324.968 70.1172 332.834 62.4012 332.834 50.4878C332.834 38.5732 324.968 30.8585 313.213 30.8585ZM281.366 56.7585L290.398 60.0438C287.342 66.3625 281.033 70.1172 272.834 70.1172C261.078 70.1172 253.213 62.4012 253.213 50.4878C253.213 38.5732 261.078 30.8585 272.834 30.8585C281.033 30.8585 287.342 34.6132 290.398 40.9305L281.533 44.1532C280.057 41.2252 277.216 39.7332 272.841 39.6292C266.072 39.7892 262.952 43.2812 262.952 50.2972C262.952 57.3612 266.104 60.7745 272.841 60.9252C277.033 60.8305 279.836 59.4732 281.366 56.7585ZM220.925 46.7332C221.482 41.6638 224.81 38.9705 230.008 38.8358C235.216 38.9705 238.39 41.4998 238.75 46.7332H220.925ZM248.422 50.4878C248.422 49.1865 248.336 47.9318 248.153 46.7332C246.748 36.9785 239.74 30.8585 229.81 30.8585C218.666 30.8585 211.205 38.5732 211.205 50.4878C211.205 62.4012 218.666 70.1172 229.81 70.1172C237.724 70.1172 244.2 66.4318 247.041 59.9158L238.604 56.8518C237.262 60.1705 234.404 61.7185 230.008 61.7185C224.66 61.5838 221.528 58.5878 221.008 53.3372H248.273C248.376 52.4172 248.422 51.4638 248.422 50.4878ZM205.457 46.3838V68.9825H195.877V40.4478H180.22V68.9772H170.638V32.0091H191.082C199.021 32.0091 205.457 38.4438 205.457 46.3838ZM152.434 21.7478C152.434 18.5732 155.008 15.9998 158.182 15.9998C161.357 15.9998 163.93 18.5732 163.93 21.7478C163.93 24.9225 161.357 27.4958 158.182 27.4958C155.008 27.4958 152.434 24.9225 152.434 21.7478ZM153.393 32.0091H162.974V68.9825H153.393V32.0091ZM138.064 52.8825C138.064 57.1118 134.636 60.5398 130.406 60.5398H118.925V40.4478H130.406C134.636 40.4478 138.064 43.8758 138.064 48.1038V52.8825ZM147.585 48.5732C147.162 39.4518 139.71 32.1638 130.516 32.0105L109.344 32.0038V81.1465H118.925V68.9772H130.516C139.717 68.8225 147.173 61.5252 147.586 52.3958C147.598 52.1292 147.644 51.3638 147.644 50.4905C147.644 49.6825 147.598 48.8438 147.585 48.5732Z" fill="white"/>
<path d="M88.4627 43.7195L79.4307 26.7915C77.7653 23.6648 74.5093 21.7115 70.9667 21.7115H61.372V26.5075H61.376C63.1453 26.5075 64.772 27.4822 65.6053 29.0462L74.6347 45.9768C75.3893 47.3875 75.7653 48.9382 75.7653 50.4915C75.7653 52.0448 75.3893 53.5942 74.6347 55.0062L65.6053 71.9368C64.772 73.5008 63.1453 74.4755 61.376 74.4755H61.372V79.2715H70.9667C74.5093 79.2715 77.7653 77.3182 79.4307 74.1915L88.4627 57.2635C89.5893 55.1448 90.1547 52.8195 90.1547 50.4915C90.1547 48.1635 89.5893 45.8382 88.4627 43.7195ZM42.188 21.7115H51.7827V26.5075H51.7787C50.0093 26.5075 48.3813 27.4822 47.548 29.0462L38.52 45.9768C37.7653 47.3875 37.3893 48.9382 37.3893 50.4915C37.3893 52.0448 37.7653 53.5942 38.52 55.0062L47.548 71.9368C48.3813 73.5008 50.0093 74.4755 51.7787 74.4755H51.7827V79.2715H42.188C38.6453 79.2715 35.3893 77.3182 33.724 74.1915L24.692 57.2635C23.5653 55.1448 23 52.8195 23 50.4915C23 48.1635 23.5653 45.8382 24.692 43.7195L33.724 26.7915C35.3893 23.6648 38.6453 21.7115 42.188 21.7115Z" fill="white"/>
</svg>