<svg width="40" height="40" viewBox="0 0 40 40" fill="none" xmlns="http://www.w3.org/2000/svg">
<path d="M6.38797 5.96043L1.00783 16.0306C0.336428 17.2909 0 18.674 0 20.0591C0 21.4443 0.336428 22.8273 1.00783 24.0876L6.38797 34.1579C7.37962 36.0179 9.31895 37.1797 11.4294 37.1797H17.1441V34.327H17.1422C16.0879 34.327 15.1183 33.7469 14.6224 32.817L9.24428 22.7448C8.79482 21.9052 8.57081 20.9832 8.57081 20.0591C8.57081 19.135 8.79482 18.2129 9.24428 17.3735L14.6224 7.30133C15.1183 6.37121 16.0879 5.79139 17.1422 5.79139H17.1441V2.93848H11.4294C9.31895 2.93848 7.37962 4.1004 6.38797 5.96043Z" fill="#121316"/>
<path d="M38.9922 16.0306L33.6122 5.9605C32.6204 4.10027 30.6813 2.93855 28.5708 2.93855H22.8559V5.79126H22.858C23.9123 5.79126 24.8819 6.37128 25.3777 7.3012L30.7557 17.3734C31.2054 18.213 31.429 19.135 31.429 20.0591C31.429 20.9833 31.2054 21.9053 30.7557 22.7449L25.3777 32.8169C24.8819 33.747 23.9123 34.3268 22.858 34.3268H22.8559V37.1797H28.5708C30.6813 37.1797 32.6204 36.018 33.6122 34.1578L38.9922 24.0877C39.6634 22.8273 40 21.4442 40 20.0591C40 18.6741 39.6634 17.291 38.9922 16.0306Z" fill="#121316"/>
</svg>
