<svg width="40" height="40" viewBox="0 0 40 40" fill="none" xmlns="http://www.w3.org/2000/svg">
<path d="M0.5 6C0.5 2.96243 2.96243 0.5 6 0.5H34C37.0376 0.5 39.5 2.96243 39.5 6V34C39.5 37.0376 37.0376 39.5 34 39.5H6C2.96243 39.5 0.5 37.0376 0.5 34V6Z" fill="#1F1F1F"/>
<path d="M0.5 6C0.5 2.96243 2.96243 0.5 6 0.5H34C37.0376 0.5 39.5 2.96243 39.5 6V34C39.5 37.0376 37.0376 39.5 34 39.5H6C2.96243 39.5 0.5 37.0376 0.5 34V6Z" stroke="#27272A"/>
<path d="M19.9999 24.6666L15.3333 19.9999M15.3333 19.9999L19.9999 15.3333M15.3333 19.9999H24.6666" stroke="#FAFAFA" stroke-linecap="round" stroke-linejoin="round"/>
</svg>
