<svg width="349" height="40" viewBox="0 0 349 40" fill="none" xmlns="http://www.w3.org/2000/svg">
<g filter="url(#filter0_d_5663_735)">
<path d="M2 7C2 3.68629 4.68629 1 8 1H341C344.314 1 347 3.68629 347 7V31C347 34.3137 344.314 37 341 37H8.00001C4.6863 37 2 34.3137 2 31V7Z" fill="#1F1F1F"/>
<path d="M2.5 7C2.5 3.96243 4.96243 1.5 8 1.5H341C344.038 1.5 346.5 3.96244 346.5 7V31C346.5 34.0376 344.038 36.5 341 36.5H8.00001C4.96244 36.5 2.5 34.0376 2.5 31V7Z" stroke="#27272A"/>
<path d="M19.628 23.216C20.776 23.216 21.756 22.824 22.54 22.026C23.212 21.34 23.59 20.514 23.688 19.562H15.554C15.652 20.514 16.03 21.34 16.716 22.026C17.5 22.824 18.466 23.216 19.628 23.216ZM19.628 24.168C18.2 24.168 17.01 23.678 16.03 22.698C15.05 21.718 14.56 20.514 14.56 19.1C14.56 17.7 15.05 16.496 16.03 15.516C17.01 14.536 18.2 14.032 19.628 14.032C21.042 14.032 22.246 14.536 23.226 15.516C24.206 16.496 24.696 17.7 24.696 19.1C24.696 20.514 24.206 21.718 23.226 22.698C22.246 23.678 21.042 24.168 19.628 24.168ZM23.688 18.638C23.59 17.7 23.212 16.874 22.54 16.188C21.756 15.39 20.776 14.984 19.628 14.984C18.466 14.984 17.5 15.39 16.716 16.188C16.03 16.874 15.652 17.7 15.554 18.638H23.688ZM32.112 23.104H33.092V25.876H32.168V24H26.456V25.876H25.532V23.104H26.386C26.862 22.488 27.1 21.606 27.1 20.458V17H32.112V23.104ZM27.506 23.104H31.188V17.896H28.024V20.458C28.024 21.536 27.842 22.418 27.506 23.104ZM37.7518 23.272C38.5218 23.272 39.1798 23.006 39.7118 22.474C40.1318 22.04 40.3838 21.536 40.4678 20.948H35.0218C35.1058 21.536 35.3578 22.04 35.7918 22.474C36.3238 23.006 36.9678 23.272 37.7518 23.272ZM37.7518 24.168C36.7158 24.168 35.8478 23.818 35.1338 23.118C34.4198 22.418 34.0698 21.536 34.0698 20.5C34.0698 19.464 34.4198 18.596 35.1338 17.896C35.8478 17.196 36.7158 16.832 37.7518 16.832C38.7738 16.832 39.6418 17.196 40.3558 17.896C41.0698 18.596 41.4338 19.464 41.4338 20.5C41.4338 21.536 41.0698 22.418 40.3558 23.118C39.6418 23.818 38.7738 24.168 37.7518 24.168ZM40.4678 20.052C40.3838 19.478 40.1318 18.974 39.7118 18.54C39.1798 18.008 38.5218 17.728 37.7518 17.728C36.9678 17.728 36.3238 18.008 35.7918 18.54C35.3578 18.974 35.1058 19.478 35.0218 20.052H40.4678ZM46.732 16.832C47.726 16.832 48.58 17.196 49.28 17.896C49.98 18.61 50.344 19.478 50.344 20.5C50.344 21.536 49.98 22.404 49.28 23.104C48.58 23.818 47.726 24.168 46.732 24.168C45.486 24.168 44.548 23.664 43.904 22.628V26.8H42.98V17H43.904V18.372C44.548 17.35 45.486 16.832 46.732 16.832ZM46.662 23.272C47.432 23.272 48.09 23.006 48.622 22.474C49.154 21.942 49.42 21.284 49.42 20.5C49.42 19.73 49.154 19.072 48.622 18.54C48.09 18.008 47.432 17.728 46.662 17.728C45.878 17.728 45.234 18.008 44.702 18.54C44.17 19.072 43.904 19.73 43.904 20.5C43.904 21.284 44.17 21.942 44.702 22.474C45.234 23.006 45.878 23.272 46.662 23.272ZM58.6424 24.168C57.5784 24.168 56.7104 23.818 56.0104 23.118C55.3104 22.418 54.9604 21.536 54.9604 20.5C54.9604 19.464 55.3104 18.596 56.0104 17.896C56.7104 17.196 57.5784 16.832 58.6424 16.832C59.3284 16.832 59.9444 17 60.5044 17.336C61.0504 17.672 61.4564 18.106 61.7084 18.666L60.9524 19.1C60.7564 18.68 60.4624 18.358 60.0424 18.106C59.6224 17.854 59.1604 17.728 58.6424 17.728C57.8584 17.728 57.2144 18.008 56.6824 18.54C56.1504 19.072 55.8844 19.73 55.8844 20.5C55.8844 21.284 56.1504 21.942 56.6824 22.474C57.2144 23.006 57.8584 23.272 58.6424 23.272C59.1604 23.272 59.6224 23.16 60.0424 22.908C60.4484 22.656 60.7704 22.32 61.0084 21.9L61.7784 22.348C61.4844 22.908 61.0644 23.356 60.5044 23.678C59.9444 24.014 59.3144 24.168 58.6424 24.168ZM66.2986 24.168C65.2626 24.168 64.3946 23.818 63.6806 23.118C62.9666 22.418 62.6166 21.536 62.6166 20.5C62.6166 19.464 62.9666 18.596 63.6806 17.896C64.3946 17.196 65.2626 16.832 66.2986 16.832C67.3206 16.832 68.1886 17.196 68.9026 17.896C69.6166 18.596 69.9806 19.464 69.9806 20.5C69.9806 21.536 69.6166 22.418 68.9026 23.118C68.1886 23.818 67.3206 24.168 66.2986 24.168ZM66.2986 23.272C67.0686 23.272 67.7266 23.006 68.2586 22.474C68.7906 21.942 69.0566 21.284 69.0566 20.5C69.0566 19.73 68.7906 19.072 68.2586 18.54C67.7266 18.008 67.0686 17.728 66.2986 17.728C65.5146 17.728 64.8706 18.008 64.3386 18.54C63.8066 19.072 63.5406 19.73 63.5406 20.5C63.5406 21.284 63.8066 21.942 64.3386 22.474C64.8706 23.006 65.5146 23.272 66.2986 23.272ZM76.4829 17H77.4069V24H76.4829V20.948H72.4509V24H71.5269V17H72.4509V20.052H76.4829V17ZM83.8409 17V17.896H80.2849V24H79.3609V17H83.8409ZM87.9549 24.168C86.9189 24.168 86.0509 23.818 85.3369 23.118C84.6229 22.418 84.2729 21.536 84.2729 20.5C84.2729 19.464 84.6229 18.596 85.3369 17.896C86.0509 17.196 86.9189 16.832 87.9549 16.832C88.9769 16.832 89.8449 17.196 90.5589 17.896C91.2729 18.596 91.6369 19.464 91.6369 20.5C91.6369 21.536 91.2729 22.418 90.5589 23.118C89.8449 23.818 88.9769 24.168 87.9549 24.168ZM87.9549 23.272C88.7249 23.272 89.3829 23.006 89.9149 22.474C90.4469 21.942 90.7129 21.284 90.7129 20.5C90.7129 19.73 90.4469 19.072 89.9149 18.54C89.3829 18.008 88.7249 17.728 87.9549 17.728C87.1709 17.728 86.5269 18.008 85.9949 18.54C85.4629 19.072 85.1969 19.73 85.1969 20.5C85.1969 21.284 85.4629 21.942 85.9949 22.474C86.5269 23.006 87.1709 23.272 87.9549 23.272ZM98.5709 24H97.4649L95.2809 21.116L93.0969 24H91.9909L94.7349 20.374L92.1729 17H93.2789L95.2809 19.646L97.2829 17H98.3889L95.8409 20.374L98.5709 24Z" fill="#FAFAFA"/>
<g opacity="0.5">
<path d="M324.614 17.1475C324.614 17.1475 324.614 17.1475 324.614 17.1476M324.614 17.1475L324.614 17.1476M324.614 17.1475L324.614 17.1476M324.614 17.1475L324.614 17.1476M329.4 20.8667L329.386 20.8526L329.06 20.5273L329.4 20.8667ZM329.4 20.8667V20.8667ZM324.614 20.8527L324.614 20.8526C324.614 20.8526 324.614 20.8527 324.614 20.8527Z" fill="#FAFAFA" stroke="#FAFAFA"/>
</g>
</g>
<defs>
<filter id="filter0_d_5663_735" x="0" y="0" width="349" height="40" filterUnits="userSpaceOnUse" color-interpolation-filters="sRGB">
<feFlood flood-opacity="0" result="BackgroundImageFix"/>
<feColorMatrix in="SourceAlpha" type="matrix" values="0 0 0 0 0 0 0 0 0 0 0 0 0 0 0 0 0 0 127 0" result="hardAlpha"/>
<feOffset dy="1"/>
<feGaussianBlur stdDeviation="1"/>
<feComposite in2="hardAlpha" operator="out"/>
<feColorMatrix type="matrix" values="0 0 0 0 0 0 0 0 0 0 0 0 0 0 0 0 0 0 0.05 0"/>
<feBlend mode="normal" in2="BackgroundImageFix" result="effect1_dropShadow_5663_735"/>
<feBlend mode="normal" in="SourceGraphic" in2="effect1_dropShadow_5663_735" result="shape"/>
</filter>
</defs>
</svg>
