<svg width="12" height="16" viewBox="0 0 12 16" fill="none" xmlns="http://www.w3.org/2000/svg">
<path d="M11.3334 6.66658C11.3334 10.6666 6.00008 14.6666 6.00008 14.6666C6.00008 14.6666 0.666748 10.6666 0.666748 6.66658C0.666748 5.2521 1.22865 3.89554 2.22885 2.89535C3.22904 1.89516 4.58559 1.33325 6.00008 1.33325C7.41457 1.33325 8.77112 1.89516 9.77132 2.89535C10.7715 3.89554 11.3334 5.2521 11.3334 6.66658Z" stroke="#FAFAFA" stroke-opacity="0.5" stroke-linecap="round" stroke-linejoin="round"/>
<path d="M6.00008 8.66658C7.10465 8.66658 8.00008 7.77115 8.00008 6.66658C8.00008 5.56202 7.10465 4.66659 6.00008 4.66659C4.89551 4.66659 4.00008 5.56202 4.00008 6.66658C4.00008 7.77115 4.89551 8.66658 6.00008 8.66658Z" stroke="#FAFAFA" stroke-opacity="0.5" stroke-linecap="round" stroke-linejoin="round"/>
</svg>
