<svg width="103" height="29" viewBox="0 0 103 29" fill="none" xmlns="http://www.w3.org/2000/svg">
<path fill-rule="evenodd" clip-rule="evenodd" d="M5.57116 0.0995833C3.46866 0.978646 1.16678 3.45271 0.441784 6.56115C-0.482591 10.4943 3.35085 12.1527 3.66804 11.609C4.03053 10.9746 2.97929 10.7571 2.76179 8.70896C2.48991 6.08083 3.71335 3.12646 5.25397 1.83958C5.54397 1.5949 5.52585 1.93021 5.52585 2.54646L5.47147 15.6508C5.47147 18.4602 5.35366 19.3393 5.14522 20.2183C4.93678 21.1065 4.60147 21.7046 4.84616 21.9402C5.13616 22.194 6.36866 21.5777 7.07553 20.5808C7.8832 19.3489 8.30304 17.9031 8.28085 16.4302C8.34429 14.5633 8.33522 11.5999 8.34429 9.91427C8.34429 8.37364 8.37147 3.83333 8.31709 1.10552C8.29897 0.434895 6.44116 -0.262917 5.57116 0.108646V0.0995833ZM80.0015 13.2221C79.9725 14.3977 79.701 15.5547 79.204 16.6205C78.4337 18.1793 76.8205 18.6596 76.1318 16.4211C75.7693 15.2068 75.7421 13.1677 76.014 11.464C76.2859 9.74208 77.0471 8.42802 78.3068 8.54583C79.5574 8.66365 80.1374 10.2677 80.0015 13.2221ZM59.0218 22.2665C59.0037 24.6861 58.623 26.8068 57.8074 27.4321C56.6383 28.3021 55.0887 27.6405 55.4058 25.8733C55.6868 24.3146 57.0371 22.7196 59.0308 20.7621L59.0218 22.2665ZM58.7046 13.204C58.6516 14.3822 58.3812 15.5405 57.9071 16.6205C57.1368 18.1793 55.5146 18.6596 54.8349 16.4211C54.3818 14.8896 54.4905 12.914 54.7171 11.6633C55.0162 10.0502 55.7321 8.54583 57.0099 8.54583C58.2605 8.54583 58.8768 9.90521 58.7046 13.204ZM46.5518 13.1858C46.5288 14.3758 46.2604 15.5482 45.7633 16.6296C44.9658 18.1702 43.3799 18.6596 42.6821 16.4211C42.1837 14.8171 42.3558 12.6149 42.5643 11.4368C42.8724 9.66958 43.6518 8.42802 44.8571 8.53677C46.1077 8.66365 46.7058 10.2586 46.5518 13.1858ZM102.241 14.8261C101.942 14.8261 101.797 15.1433 101.688 15.669C101.289 17.4996 100.872 17.9165 100.329 17.9165C99.7305 17.9165 99.1868 17.0102 99.0418 15.1977C98.933 13.7658 98.9512 11.1377 99.0962 8.51865C99.1234 7.98396 98.9693 7.45833 97.5283 6.93271C96.9121 6.70615 96.0058 6.37083 95.5618 7.45833C94.6644 9.52755 94.0311 11.7015 93.6768 13.929C93.6768 13.9833 93.6043 13.9924 93.5862 13.8746C93.5227 13.0861 93.3505 11.6452 93.3324 8.6274C93.3324 8.03833 93.2055 7.5399 92.553 7.13208C92.1271 6.86021 90.8493 6.39802 90.378 6.95083C89.9883 7.40396 89.5262 8.64552 89.0458 10.1046L88.3752 12.0983L88.3843 7.67583C88.3843 7.22271 88.0762 7.06865 87.9765 7.04146C87.4448 6.87746 86.8985 6.76516 86.3452 6.70615C85.9102 6.70615 85.8015 6.95083 85.8015 7.31333C85.8015 7.35865 85.729 11.5274 85.729 14.4455V14.8624C85.4843 16.2036 84.6958 18.0252 83.8349 18.0252C82.974 18.0252 82.5662 17.264 82.5662 13.784C82.5662 11.754 82.6296 10.8749 82.6568 9.40677C82.6749 8.5549 82.7112 7.91146 82.7112 7.76646C82.7021 7.31333 81.9227 7.08677 81.5602 6.99615C81.1977 6.91458 80.8715 6.87833 80.6268 6.89646C80.2643 6.91458 80.0196 7.14115 80.0196 7.45833V7.95677C79.6285 7.33816 79.0462 6.86406 78.3612 6.60646C77.0562 6.21677 75.6968 6.56115 74.6727 7.99302C73.7888 9.25746 73.2685 10.7401 73.1684 12.2796C73.0234 13.639 73.0777 15.0074 73.3224 16.1765C73.0233 17.4815 72.4524 18.0252 71.8362 18.0252C70.939 18.0252 70.2955 16.5571 70.368 14.0377C70.4224 12.3702 70.7487 11.2011 71.1112 9.51552C71.2652 8.79052 71.1474 8.42802 70.8302 8.06552C70.5402 7.73021 69.924 7.55802 69.0268 7.76646C68.3924 7.91146 67.4862 8.07458 66.6705 8.1924C66.6705 8.1924 66.7158 8.00208 66.7612 7.64865C66.9696 5.80896 64.9668 5.95396 64.3233 6.54302C63.9427 6.89646 63.689 7.30427 63.5802 8.05646C63.4262 9.23458 64.3959 9.7874 64.3959 9.7874C63.7731 12.1397 62.7291 14.3596 61.3146 16.3396V15.7052C61.3055 12.6602 61.3418 10.2677 61.3599 9.40677C61.378 8.5549 61.4143 7.92958 61.4143 7.77552C61.4143 7.44927 61.2149 7.3224 60.8162 7.16833C60.4537 7.02333 60.0368 6.93271 59.6018 6.89646C59.058 6.85115 58.7227 7.14115 58.7318 7.48552V7.95677C58.3389 7.33618 57.753 6.86177 57.0643 6.60646C55.7593 6.21677 54.3999 6.56115 53.3758 7.99302C52.5236 9.27011 52.0062 10.7411 51.8715 12.2705C51.7355 13.6933 51.7537 14.8986 51.953 15.9318C51.7446 16.9558 51.1465 18.0161 50.4758 18.0161C49.6149 18.0161 49.1165 17.264 49.1165 13.784C49.1165 11.754 49.1799 10.8749 49.2071 9.40677C49.2252 8.5549 49.2615 7.91146 49.2615 7.76646C49.2615 7.31333 48.473 7.08677 48.1105 6.99615C47.7299 6.90552 47.3946 6.87833 47.1499 6.90552C46.8146 6.92365 46.579 7.22271 46.579 7.44927V7.95677C46.186 7.33618 45.6002 6.86177 44.9115 6.60646C43.6065 6.21677 42.2562 6.57021 41.223 7.99302C40.5434 8.92646 39.9996 9.95958 39.7187 12.2524C39.6426 12.8657 39.6062 13.4832 39.6099 14.1011C39.338 15.7415 38.1508 17.6355 37.1812 17.6355C36.6102 17.6355 36.0665 16.539 36.0665 14.1918C36.0665 11.0652 36.2658 6.61552 36.293 6.18958L37.7612 6.1624C38.3774 6.1624 38.9302 6.17146 39.7458 6.12615C40.1537 6.10802 40.5433 4.6399 40.1265 4.45865C39.9362 4.37708 38.5858 4.30458 38.0421 4.29552C37.589 4.28646 36.3383 4.19583 36.3383 4.19583C36.3383 4.19583 36.4562 1.24146 36.4833 0.933333C36.5015 0.661458 36.1662 0.534583 35.9668 0.453021C35.5195 0.27298 35.0548 0.139363 34.5802 0.0542706C33.8915 -0.0816669 33.5834 0.0542705 33.5199 0.63427C33.4293 1.51333 33.384 4.09615 33.384 4.09615C32.8765 4.09615 31.1455 3.99646 30.6471 3.99646C30.1758 3.99646 29.6683 6.00833 30.3208 6.03552L33.2208 6.11708L33.1937 12.0349V12.4608C32.7133 14.9349 31.0458 16.2671 31.0458 16.2671C31.4083 14.6358 30.6652 13.4124 29.3512 12.3702C28.8618 11.9896 27.9012 11.2646 26.8227 10.4671C26.8227 10.4671 27.448 9.85083 28.0008 8.61833C28.3905 7.74833 28.4087 6.75146 27.448 6.53396C25.8621 6.1624 24.548 7.3224 24.1583 8.57302C24.0063 8.97786 23.9681 9.41665 24.048 9.84166C24.1279 10.2667 24.3228 10.6617 24.6115 10.9836L24.7474 11.1558C24.3849 11.8446 23.8955 12.769 23.4787 13.494C22.3277 15.4877 21.4487 17.0736 20.7871 17.0736C20.2615 17.0736 20.2705 15.4696 20.2705 13.9652C20.2705 12.6693 20.3612 10.7208 20.4427 8.70896C20.4699 8.03833 20.1346 7.65771 19.5727 7.31333C19.1259 7.00426 18.6198 6.79133 18.0865 6.68802C17.4521 6.68802 15.6396 6.77865 13.9177 11.7358C13.7093 12.3611 13.2833 13.494 13.2833 13.494L13.3196 7.5399C13.3196 7.3949 13.2471 7.26802 13.0749 7.1774C12.5341 6.88989 11.9374 6.72293 11.3258 6.68802C10.9996 6.68802 10.8365 6.84208 10.8365 7.14115L10.773 16.4755C10.773 17.1824 10.7912 18.0071 10.8637 18.3696C10.9362 18.7321 11.0449 19.0221 11.1899 19.1943C11.3258 19.3755 11.489 19.5024 11.7518 19.5568C12.0055 19.6111 13.3649 19.7833 13.4374 19.2668C13.528 18.6415 13.528 17.9708 14.244 15.4605C15.3496 11.5546 16.7996 9.6424 17.4883 8.97177C17.6062 8.8449 17.7421 8.8449 17.733 9.03521L17.5337 13.8565C17.3524 18.723 18.2405 19.6202 19.5002 19.6202C20.4699 19.6202 21.8383 18.6596 23.3065 16.2308L25.7533 12.1527L27.1852 13.4758C28.3452 14.5633 28.7258 15.6146 28.4721 16.6024C28.2818 17.3546 27.5477 18.143 26.2608 17.3818C25.8802 17.1552 25.7171 16.983 25.3455 16.7383C25.1371 16.6024 24.829 16.5571 24.6387 16.7021C24.1583 17.0646 23.8774 17.5358 23.7233 18.1068C23.5693 18.6596 24.1312 18.9586 24.7112 19.2124C25.2096 19.439 26.288 19.6383 26.9768 19.6655C29.6412 19.7561 31.7799 18.3786 33.2662 14.8261C33.538 17.8893 34.6708 19.6293 36.6374 19.6293C37.9515 19.6293 39.2746 17.9255 39.8546 16.258C40.0177 16.9377 40.2624 17.5268 40.5796 18.0343C42.1021 20.4358 45.0474 19.9102 46.5246 17.8711C46.9777 17.2458 47.0502 17.0193 47.0502 17.0193C47.0945 17.7054 47.3912 18.3509 47.8832 18.8311C48.3752 19.3114 49.0276 19.5925 49.7146 19.6202C50.7115 19.6202 51.7355 19.149 52.4605 17.5268C52.5421 17.708 52.6418 17.8711 52.7324 18.0343C54.2549 20.4358 57.2002 19.9102 58.6774 17.8711L58.8587 17.6174L58.904 18.8861L57.5446 20.1277C55.2608 22.2121 53.5208 23.798 53.394 25.6468C53.2308 28.003 55.143 28.873 56.593 28.9908C57.3183 29.0269 58.04 28.8687 58.6837 28.5326C59.3273 28.1964 59.8695 27.6945 60.2543 27.0786C60.9612 26.0365 61.4324 23.789 61.3962 21.5686L61.3418 18.3424C63.5126 15.8321 65.1802 12.9277 66.2537 9.7874C66.2537 9.7874 67.0965 9.79646 67.9937 9.74208C68.2837 9.72396 68.3652 9.77833 68.3109 9.98677C68.2474 10.2405 67.178 14.373 68.1568 17.128C68.8274 19.013 70.3318 19.6202 71.238 19.6202C72.2802 19.6202 73.2862 18.8318 73.8208 17.6536L74.0293 18.0343C75.5518 20.4358 78.488 19.9102 79.9743 17.8711C80.3096 17.418 80.4999 17.0193 80.4999 17.0193C80.8262 19.013 82.3758 19.6293 83.264 19.6293C84.1883 19.6293 85.0765 19.2486 85.7833 17.563C85.8105 18.3061 85.8558 18.9133 85.9283 19.1036C85.9737 19.2215 86.2365 19.3755 86.4359 19.439C87.2787 19.7471 88.1396 19.6021 88.4658 19.5386C88.6833 19.4933 88.8555 19.3121 88.8827 18.859C88.9462 17.6536 88.9099 15.6327 89.2724 14.1374C89.8796 11.609 90.4505 10.6302 90.7224 10.1499C90.8765 9.87802 91.0487 9.83271 91.0577 10.1227C91.0668 10.7027 91.094 12.4065 91.3296 14.6993C91.5108 16.3849 91.7465 17.3818 91.9187 17.6899C92.4352 18.5961 93.0696 18.6415 93.5771 18.6415C93.9033 18.6415 94.5921 18.5508 94.5287 17.9799C94.5015 17.699 94.5468 15.968 95.163 13.4849C95.5527 11.8627 96.2052 10.4036 96.4408 9.8599C96.5315 9.66958 96.5768 9.82365 96.5768 9.8599C96.5224 10.9655 96.4137 14.6177 96.8668 16.6205C97.483 19.3211 99.2683 19.6293 99.8937 19.6293C101.226 19.6293 102.313 18.6143 102.676 15.959C102.766 15.3246 102.631 14.8261 102.241 14.8261Z" fill="#09090B"/>
</svg>
