<svg width="723" height="684" viewBox="0 0 723 684" fill="none" xmlns="http://www.w3.org/2000/svg">
<rect width="723" height="684" fill="#0A0A0C"/>
<rect x="270.96" y="309.819" width="180.676" height="63.559" rx="11.4758" fill="#C1C1CA"/>
<g opacity="0.84">
<path d="M257.262 313.965C257.262 304.458 264.969 296.751 274.476 296.751H447.563C457.07 296.751 464.777 304.458 464.777 313.965V370.343C464.777 379.85 457.07 387.557 447.563 387.557H274.476C264.969 387.557 257.262 379.85 257.262 370.343V313.965Z" fill="#09090B"/>
<path d="M257.262 313.965C257.262 304.458 264.969 296.751 274.476 296.751H447.563C457.07 296.751 464.777 304.458 464.777 313.965V370.343C464.777 379.85 457.07 387.557 447.563 387.557H274.476C264.969 387.557 257.262 379.85 257.262 370.343V313.965Z" fill="#09090B"/>
</g>
<path d="M428.216 286.958H293.824V243.47H428.216V286.958Z" fill="#4651C9"/>
<path d="M428.216 397.35H293.824V440.838H428.216V397.35Z" fill="#4651C9"/>
<path d="M428.216 240.684H293.824V201.099H428.216V240.684Z" fill="#D7D7F8"/>
<path d="M428.216 443.626H293.824V483.211H428.216V443.626Z" fill="#4651C9"/>
<path d="M428.216 443.626H293.824V483.211H428.216V443.626Z" fill="#D7D7F8"/>
<path d="M428.216 197.753H293.824V154.823H428.216V197.753Z" fill="#D7D7F8"/>
<path d="M428.216 485.998H293.824V528.928H428.216V485.998Z" fill="#D7D7F8"/>
<path d="M428.216 541.195H293.824V593.603H428.216V541.195Z" fill="#D7D7F8"/>
<path d="M428.216 142.557H293.824V90.1489H428.216V142.557Z" fill="#D7D7F8"/>
<path d="M471.712 298.108C463.905 286.121 450.522 286.958 433.235 286.958V243.47C467.809 243.47 485.236 251.275 502.383 277.48L471.712 298.108Z" fill="#4651C9"/>
<path d="M471.712 385.642C463.905 397.629 450.522 396.793 433.235 396.793V440.281C467.809 440.281 485.236 432.475 502.383 406.271L471.712 385.642Z" fill="#4651C9"/>
<path d="M250.328 298.108C258.135 286.121 271.518 286.958 288.805 286.958V243.47C254.232 243.47 236.804 251.275 219.658 277.48L250.328 298.108Z" fill="#4651C9"/>
<path d="M250.328 385.642C258.135 397.629 271.518 396.793 288.805 396.793V440.281C254.232 440.281 236.804 432.475 219.658 406.271L250.328 385.642Z" fill="#4651C9"/>
<path d="M216.869 407.944C234.993 436.1 252.559 443.069 288.805 443.069V528.372C227.465 525.027 183.411 487.114 159.432 444.463L216.869 407.944Z" fill="#D7D7F8"/>
<path d="M216.869 275.808C234.993 247.652 252.559 240.683 288.805 240.683V155.38C227.465 158.725 183.411 196.638 159.432 239.289L216.869 275.808Z" fill="#D7D7F8"/>
<path d="M505.171 275.808C487.048 247.652 469.482 240.683 433.235 240.683V155.38C494.576 158.725 538.63 196.638 562.608 239.289L505.171 275.808Z" fill="#D7D7F8"/>
<path d="M505.171 407.944C487.048 436.1 469.482 443.069 433.235 443.069V528.372C494.576 525.027 538.63 487.114 562.608 444.463L505.171 407.944Z" fill="#D7D7F8"/>
<path d="M200.698 271.07L250.329 303.128V380.626L200.698 412.127C181.46 369.196 179.787 312.606 200.698 271.07Z" fill="#4651C9"/>
<path d="M522.458 271.07L472.827 303.128V380.626L522.458 412.127C541.696 369.196 543.369 312.606 522.458 271.07Z" fill="#4651C9"/>
<path d="M156.644 243.47L197.909 269.674C176.44 312.883 175.604 367.8 197.631 413.518L156.644 438.05C140.472 413.518 128.762 377.613 128.762 338.809C128.762 300.004 144.655 260.196 156.644 243.47Z" fill="#C772C4"/>
<path d="M566.511 243.47L525.246 269.674C546.715 312.883 547.551 367.8 525.524 413.518L566.511 438.05C582.683 413.518 594.393 377.613 594.393 338.809C594.393 300.004 578.501 260.196 566.511 243.47Z" fill="#C772C4"/>
<path d="M103.668 485.504L148.748 454.219C186.456 517.627 239.757 539.693 288.806 540.811V593.603C200.348 586.62 128.618 524.051 103.668 485.504Z" fill="#D7D7F8"/>
<path d="M103.668 198.248L148.748 229.533C186.456 166.126 239.757 144.059 288.806 142.942V90.1489C200.348 97.132 128.618 159.701 103.668 198.248Z" fill="#D7D7F8"/>
<path d="M618.372 485.504L573.292 454.219C535.584 517.627 482.283 539.693 433.234 540.811V593.603C521.692 586.62 593.422 524.051 618.372 485.504Z" fill="#D7D7F8"/>
<path d="M618.372 198.248L573.292 229.533C535.584 166.126 482.283 144.059 433.234 142.942V90.1489C521.692 97.132 593.422 159.701 618.372 198.248Z" fill="#D7D7F8"/>
<path d="M100.323 204.165L145.213 234.551C90.7872 327.325 122.536 416.122 145.213 448.923L100.323 480.424C40.6547 389.825 52.9232 274.693 100.323 204.165Z" fill="#C772C4"/>
<path d="M621.082 203.728L576.192 234.113C630.618 326.887 598.869 415.684 576.192 448.486L621.082 479.987C680.75 389.387 668.482 274.256 621.082 203.728Z" fill="#C772C4"/>
<path d="M340.012 336.932V334.922H349.481V336.932H345.951V346.451H343.542V336.932H340.012ZM351.618 346.451H349.006L352.986 334.922H356.127L360.102 346.451H357.49L354.602 337.557H354.512L351.618 346.451ZM351.455 341.919H357.625V343.822H351.455V341.919ZM361.489 334.922H363.921V342.172H364.017L368.999 334.922H371.132V346.451H368.695V339.195H368.61L363.6 346.451H361.489V334.922ZM367.434 331.905H369.106C369.102 332.588 368.848 333.138 368.346 333.554C367.846 333.971 367.171 334.179 366.319 334.179C365.463 334.179 364.786 333.971 364.287 333.554C363.788 333.138 363.538 332.588 363.538 331.905H365.199C365.195 332.164 365.278 332.396 365.447 332.603C365.619 332.809 365.91 332.912 366.319 332.912C366.717 332.912 367.002 332.811 367.175 332.608C367.347 332.406 367.434 332.171 367.434 331.905ZM377.34 346.608C376.499 346.608 375.75 346.464 375.094 346.175C374.441 345.882 373.925 345.481 373.546 344.97C373.17 344.456 372.977 343.863 372.966 343.191H375.42C375.435 343.473 375.527 343.721 375.696 343.934C375.869 344.145 376.097 344.308 376.383 344.424C376.668 344.541 376.989 344.599 377.345 344.599C377.717 344.599 378.045 344.533 378.33 344.402C378.616 344.27 378.839 344.088 379 343.856C379.162 343.623 379.242 343.355 379.242 343.051C379.242 342.743 379.156 342.471 378.983 342.234C378.815 341.994 378.571 341.807 378.252 341.671C377.936 341.536 377.561 341.469 377.126 341.469H376.051V339.679H377.126C377.494 339.679 377.818 339.615 378.1 339.487C378.385 339.36 378.606 339.183 378.764 338.958C378.921 338.729 379 338.463 379 338.159C379 337.87 378.931 337.617 378.792 337.399C378.657 337.177 378.465 337.005 378.218 336.881C377.974 336.757 377.689 336.695 377.362 336.695C377.032 336.695 376.73 336.755 376.456 336.875C376.182 336.992 375.962 337.159 375.797 337.376C375.632 337.594 375.544 337.849 375.533 338.142H373.197C373.208 337.478 373.397 336.892 373.765 336.386C374.133 335.879 374.628 335.483 375.251 335.198C375.878 334.909 376.585 334.764 377.373 334.764C378.169 334.764 378.865 334.909 379.462 335.198C380.059 335.487 380.522 335.877 380.852 336.369C381.186 336.857 381.351 337.405 381.348 338.012C381.351 338.658 381.151 339.196 380.745 339.628C380.344 340.06 379.82 340.334 379.175 340.45V340.54C380.023 340.649 380.668 340.943 381.111 341.424C381.558 341.9 381.779 342.497 381.775 343.214C381.779 343.871 381.59 344.454 381.207 344.965C380.828 345.475 380.304 345.877 379.636 346.169C378.968 346.462 378.203 346.608 377.34 346.608Z" fill="white"/>
</svg>
